<mxfile host="app.diagrams.net" modified="2024-03-22T11:32:22.002Z" agent="Mozilla/5.0 (Windows NT 10.0; Win64; x64) AppleWebKit/537.36 (KHTML, like Gecko) Chrome/123.0.0.0 Safari/537.36" etag="hpeWE-w5sXlA_2-abDYK" version="24.0.7" type="device">
  <diagram name="Page-1" id="2c4490ee-f0b8-94ab-5012-d5dc3445f7a3">
    <mxGraphModel dx="2074" dy="1144" grid="1" gridSize="10" guides="1" tooltips="1" connect="0" arrows="1" fold="1" page="1" pageScale="1.5" pageWidth="1169" pageHeight="826" background="none" math="0" shadow="0">
      <root>
        <mxCell id="0" style=";html=1;" />
        <mxCell id="1" style=";html=1;" parent="0" />
        <mxCell id="67c90442a009f359-279" value="&lt;font style=&quot;font-size: 16px;&quot; face=&quot;Times New Roman&quot;&gt;&lt;b&gt;3&lt;/b&gt;&lt;/font&gt;" style="strokeWidth=1;fontStyle=0;html=1;fillColor=#FFFFFF;" parent="1" vertex="1">
          <mxGeometry x="477" y="280" width="120" height="50" as="geometry" />
        </mxCell>
        <mxCell id="7a8b956e7d50b54d-104" value="&lt;font style=&quot;font-size: 16px;&quot; face=&quot;Times New Roman&quot;&gt;&lt;b&gt;4&lt;/b&gt;&lt;/font&gt;" style="strokeWidth=1;fontStyle=0;html=1;fillColor=#FFFFFF;" parent="1" vertex="1">
          <mxGeometry x="597" y="280" width="120" height="50" as="geometry" />
        </mxCell>
        <mxCell id="7a8b956e7d50b54d-109" value="&lt;font style=&quot;font-size: 16px;&quot; face=&quot;Times New Roman&quot;&gt;&lt;b&gt;5&lt;/b&gt;&lt;/font&gt;" style="strokeWidth=1;fontStyle=0;html=1;fillColor=#FFFFFF;" parent="1" vertex="1">
          <mxGeometry x="717" y="280" width="120" height="50" as="geometry" />
        </mxCell>
        <mxCell id="7a8b956e7d50b54d-114" value="&lt;font style=&quot;font-size: 16px;&quot; face=&quot;Times New Roman&quot;&gt;&lt;b&gt;6&lt;/b&gt;&lt;/font&gt;" style="strokeWidth=1;fontStyle=0;html=1;fillColor=#FFFFFF;" parent="1" vertex="1">
          <mxGeometry x="837" y="280" width="120" height="50" as="geometry" />
        </mxCell>
        <mxCell id="7a8b956e7d50b54d-119" value="&lt;b&gt;7&lt;/b&gt;" style="strokeWidth=1;fontStyle=0;html=1;fillColor=#FFFFFF;" parent="1" vertex="1">
          <mxGeometry x="957" y="280" width="120" height="50" as="geometry" />
        </mxCell>
        <mxCell id="7a8b956e7d50b54d-124" value="&lt;b&gt;&lt;font style=&quot;font-size: 16px;&quot; face=&quot;Times New Roman&quot;&gt;8&lt;/font&gt;&lt;/b&gt;" style="strokeWidth=1;fontStyle=0;html=1;fillColor=#FFFFFF;" parent="1" vertex="1">
          <mxGeometry x="1077" y="280" width="120" height="50" as="geometry" />
        </mxCell>
        <mxCell id="7a8b956e7d50b54d-129" value="&lt;font size=&quot;1&quot; face=&quot;Times New Roman&quot;&gt;&lt;b style=&quot;font-size: 16px;&quot;&gt;9&lt;/b&gt;&lt;/font&gt;" style="strokeWidth=1;fontStyle=0;html=1;fillColor=#FFFFFF;" parent="1" vertex="1">
          <mxGeometry x="1197" y="280" width="120" height="50" as="geometry" />
        </mxCell>
        <mxCell id="7a8b956e7d50b54d-134" value="&lt;font size=&quot;1&quot; face=&quot;Times New Roman&quot;&gt;&lt;b style=&quot;font-size: 16px;&quot;&gt;10&lt;/b&gt;&lt;/font&gt;" style="strokeWidth=1;fontStyle=0;html=1;fillColor=#FFFFFF;" parent="1" vertex="1">
          <mxGeometry x="1317" y="280" width="120" height="50" as="geometry" />
        </mxCell>
        <mxCell id="7a8b956e7d50b54d-145" value="&lt;font style=&quot;font-size: 16px;&quot; face=&quot;Times New Roman&quot;&gt;&lt;b&gt;2&lt;/b&gt;&lt;/font&gt;" style="strokeWidth=1;fontStyle=0;html=1;fillColor=#FFFFFF;perimeterSpacing=0;strokeColor=default;" parent="1" vertex="1">
          <mxGeometry x="357" y="280" width="120" height="50" as="geometry" />
        </mxCell>
        <mxCell id="7a8b956e7d50b54d-150" value="" style="align=left;strokeColor=#000000;html=1;fillColor=#6666FF;" parent="1" vertex="1">
          <mxGeometry x="237" y="330" width="120" height="40" as="geometry" />
        </mxCell>
        <mxCell id="7a8b956e7d50b54d-151" value="&lt;font style=&quot;font-size: 16px;&quot; face=&quot;Times New Roman&quot;&gt;&lt;b&gt;1&lt;/b&gt;&lt;/font&gt;" style="strokeWidth=1;fontStyle=0;html=1;fillColor=#FFFFFF;" parent="1" vertex="1">
          <mxGeometry x="237" y="280" width="120" height="50" as="geometry" />
        </mxCell>
        <mxCell id="7a8b956e7d50b54d-162" value="" style="align=left;strokeColor=#000000;html=1;" parent="1" vertex="1">
          <mxGeometry x="237" y="370" width="120" height="40" as="geometry" />
        </mxCell>
        <mxCell id="7a8b956e7d50b54d-163" value="" style="align=left;strokeColor=#000000;html=1;" parent="1" vertex="1">
          <mxGeometry x="237" y="410" width="120" height="40" as="geometry" />
        </mxCell>
        <mxCell id="7a8b956e7d50b54d-177" value="&lt;b&gt;&lt;font color=&quot;#ffffff&quot; style=&quot;font-size: 14px;&quot; face=&quot;Times New Roman&quot;&gt;1.1&lt;/font&gt;&lt;/b&gt;" style="align=center;strokeColor=#000000;html=1;fillColor=#6666FF;" parent="1" vertex="1">
          <mxGeometry x="357" y="330" width="120" height="40" as="geometry" />
        </mxCell>
        <mxCell id="7a8b956e7d50b54d-178" value="" style="align=left;strokeColor=#000000;html=1;" parent="1" vertex="1">
          <mxGeometry x="357" y="370" width="120" height="40" as="geometry" />
        </mxCell>
        <mxCell id="7a8b956e7d50b54d-179" value="" style="align=left;strokeColor=#000000;html=1;" parent="1" vertex="1">
          <mxGeometry x="357" y="410" width="120" height="40" as="geometry" />
        </mxCell>
        <mxCell id="7a8b956e7d50b54d-193" value="" style="align=left;strokeColor=#000000;html=1;fillColor=#6666FF;" parent="1" vertex="1">
          <mxGeometry x="477" y="330" width="120" height="40" as="geometry" />
        </mxCell>
        <mxCell id="7a8b956e7d50b54d-194" value="" style="align=left;strokeColor=#000000;html=1;" parent="1" vertex="1">
          <mxGeometry x="477" y="370" width="120" height="40" as="geometry" />
        </mxCell>
        <mxCell id="7a8b956e7d50b54d-195" value="" style="align=left;strokeColor=#000000;html=1;" parent="1" vertex="1">
          <mxGeometry x="477" y="410" width="120" height="40" as="geometry" />
        </mxCell>
        <mxCell id="7a8b956e7d50b54d-209" value="" style="align=left;strokeColor=#000000;html=1;fillColor=#6666FF;" parent="1" vertex="1">
          <mxGeometry x="597" y="330" width="120" height="40" as="geometry" />
        </mxCell>
        <mxCell id="7a8b956e7d50b54d-210" value="" style="align=left;strokeColor=#000000;html=1;" parent="1" vertex="1">
          <mxGeometry x="597" y="370" width="120" height="40" as="geometry" />
        </mxCell>
        <mxCell id="7a8b956e7d50b54d-211" value="" style="align=left;strokeColor=#000000;html=1;" parent="1" vertex="1">
          <mxGeometry x="597" y="410" width="120" height="40" as="geometry" />
        </mxCell>
        <mxCell id="7a8b956e7d50b54d-225" value="&lt;b style=&quot;&quot;&gt;&lt;font style=&quot;font-size: 14px;&quot; color=&quot;#ffffff&quot; face=&quot;Times New Roman&quot;&gt;1.2&lt;/font&gt;&lt;/b&gt;" style="align=center;strokeColor=#000000;html=1;fillColor=#6666FF;" parent="1" vertex="1">
          <mxGeometry x="717" y="330" width="120" height="40" as="geometry" />
        </mxCell>
        <mxCell id="7a8b956e7d50b54d-226" value="" style="align=left;strokeColor=#000000;html=1;" parent="1" vertex="1">
          <mxGeometry x="717" y="370" width="120" height="40" as="geometry" />
        </mxCell>
        <mxCell id="7a8b956e7d50b54d-227" value="" style="align=left;strokeColor=#000000;html=1;" parent="1" vertex="1">
          <mxGeometry x="717" y="410" width="120" height="40" as="geometry" />
        </mxCell>
        <mxCell id="7a8b956e7d50b54d-241" value="" style="align=left;strokeColor=#000000;html=1;" parent="1" vertex="1">
          <mxGeometry x="837" y="330" width="120" height="40" as="geometry" />
        </mxCell>
        <mxCell id="7a8b956e7d50b54d-242" value="" style="align=left;strokeColor=#000000;html=1;fillColor=#6666FF;" parent="1" vertex="1">
          <mxGeometry x="837" y="370" width="120" height="40" as="geometry" />
        </mxCell>
        <mxCell id="7a8b956e7d50b54d-243" value="" style="align=left;strokeColor=#000000;html=1;" parent="1" vertex="1">
          <mxGeometry x="837" y="410" width="120" height="40" as="geometry" />
        </mxCell>
        <mxCell id="7a8b956e7d50b54d-257" value="" style="align=left;strokeColor=#000000;html=1;" parent="1" vertex="1">
          <mxGeometry x="957" y="330" width="120" height="40" as="geometry" />
        </mxCell>
        <mxCell id="7a8b956e7d50b54d-258" value="" style="align=left;strokeColor=#030303;html=1;fillColor=#6666FF;" parent="1" vertex="1">
          <mxGeometry x="957" y="370" width="120" height="40" as="geometry" />
        </mxCell>
        <mxCell id="7a8b956e7d50b54d-259" value="" style="align=left;strokeColor=#000000;html=1;" parent="1" vertex="1">
          <mxGeometry x="957" y="410" width="120" height="40" as="geometry" />
        </mxCell>
        <mxCell id="7a8b956e7d50b54d-273" value="" style="align=left;strokeColor=#000000;html=1;" parent="1" vertex="1">
          <mxGeometry x="1077" y="330" width="120" height="40" as="geometry" />
        </mxCell>
        <mxCell id="7a8b956e7d50b54d-274" value="" style="align=left;strokeColor=#000000;html=1;fillColor=#6666FF;" parent="1" vertex="1">
          <mxGeometry x="1077" y="370" width="120" height="40" as="geometry" />
        </mxCell>
        <mxCell id="7a8b956e7d50b54d-275" value="" style="align=left;strokeColor=#050505;html=1;" parent="1" vertex="1">
          <mxGeometry x="1077" y="410" width="120" height="40" as="geometry" />
        </mxCell>
        <mxCell id="7a8b956e7d50b54d-289" value="" style="align=left;strokeColor=#000000;html=1;" parent="1" vertex="1">
          <mxGeometry x="1197" y="330" width="120" height="40" as="geometry" />
        </mxCell>
        <mxCell id="7a8b956e7d50b54d-290" value="" style="align=left;strokeColor=#030303;html=1;fillColor=#6666FF;" parent="1" vertex="1">
          <mxGeometry x="1197" y="370" width="120" height="40" as="geometry" />
        </mxCell>
        <mxCell id="7a8b956e7d50b54d-291" value="" style="align=left;strokeColor=#030303;html=1;" parent="1" vertex="1">
          <mxGeometry x="1197" y="410" width="120" height="40" as="geometry" />
        </mxCell>
        <mxCell id="7a8b956e7d50b54d-305" value="" style="align=left;strokeColor=#000000;html=1;" parent="1" vertex="1">
          <mxGeometry x="1317" y="330" width="120" height="40" as="geometry" />
        </mxCell>
        <mxCell id="7a8b956e7d50b54d-306" value="" style="align=left;strokeColor=#080808;html=1;fillColor=#6666FF;" parent="1" vertex="1">
          <mxGeometry x="1317" y="370" width="120" height="40" as="geometry" />
        </mxCell>
        <mxCell id="7a8b956e7d50b54d-307" value="" style="align=left;strokeColor=#000000;html=1;" parent="1" vertex="1">
          <mxGeometry x="1317" y="410" width="120" height="40" as="geometry" />
        </mxCell>
        <mxCell id="CSQuASh9Ux3v3_yDKKrf-316" value="&lt;span style=&quot;font-size: 14px;&quot; lang=&quot;EL&quot;&gt;Κατασκευή Βάσης&lt;br&gt;&amp;nbsp;Δεδομένων&lt;/span&gt;" style="align=center;strokeColor=#030303;html=1;" vertex="1" parent="1">
          <mxGeometry x="77" y="330" width="160" height="40" as="geometry" />
        </mxCell>
        <mxCell id="CSQuASh9Ux3v3_yDKKrf-317" value="&lt;b style=&quot;font-size: 16px;&quot;&gt;&lt;font style=&quot;font-size: 16px;&quot; face=&quot;Times New Roman&quot;&gt;Τίτλος Ενότητας&lt;br&gt;&amp;nbsp;Εργασίας&lt;/font&gt;&lt;/b&gt;" style="strokeWidth=1;fontStyle=0;html=1;fillColor=#FFFFFF;" vertex="1" parent="1">
          <mxGeometry x="77" y="280" width="160" height="50" as="geometry" />
        </mxCell>
        <mxCell id="CSQuASh9Ux3v3_yDKKrf-318" value="&lt;div style=&quot;font-size: 14px;&quot;&gt;&lt;span style=&quot;background-color: initial; font-family: &amp;quot;Times New Roman&amp;quot;, serif;&quot;&gt;Backend&lt;/span&gt;&lt;span style=&quot;background-color: initial; font-family: &amp;quot;Times New Roman&amp;quot;, serif;&quot;&gt; &lt;/span&gt;&lt;span style=&quot;background-color: initial; font-family: &amp;quot;Times New Roman&amp;quot;, serif;&quot;&gt;Development&lt;/span&gt;&lt;/div&gt;" style="align=center;strokeColor=#000000;html=1;" vertex="1" parent="1">
          <mxGeometry x="77" y="370" width="160" height="40" as="geometry" />
        </mxCell>
        <mxCell id="CSQuASh9Ux3v3_yDKKrf-319" value="&lt;font face=&quot;Times New Roman&quot; style=&quot;font-size: 14px;&quot;&gt;Alpha Testing&lt;/font&gt;" style="align=center;strokeColor=#000000;html=1;" vertex="1" parent="1">
          <mxGeometry x="77" y="410" width="160" height="40" as="geometry" />
        </mxCell>
        <mxCell id="CSQuASh9Ux3v3_yDKKrf-323" value="&lt;b&gt;&lt;font style=&quot;font-size: 16px;&quot; face=&quot;Times New Roman&quot;&gt;11&lt;/font&gt;&lt;/b&gt;" style="strokeWidth=1;fontStyle=0;html=1;fillColor=#FFFFFF;" vertex="1" parent="1">
          <mxGeometry x="1437" y="280" width="120" height="50" as="geometry" />
        </mxCell>
        <mxCell id="CSQuASh9Ux3v3_yDKKrf-324" value="&lt;b&gt;&lt;font style=&quot;font-size: 16px;&quot; face=&quot;Times New Roman&quot;&gt;12&lt;/font&gt;&lt;/b&gt;" style="strokeWidth=1;fontStyle=0;html=1;fillColor=#FFFFFF;" vertex="1" parent="1">
          <mxGeometry x="1557" y="280" width="120" height="50" as="geometry" />
        </mxCell>
        <mxCell id="CSQuASh9Ux3v3_yDKKrf-325" value="" style="align=left;strokeColor=#000000;html=1;" vertex="1" parent="1">
          <mxGeometry x="1437" y="330" width="120" height="40" as="geometry" />
        </mxCell>
        <mxCell id="CSQuASh9Ux3v3_yDKKrf-326" value="" style="align=left;strokeColor=#000000;html=1;fillColor=#6666FF;" vertex="1" parent="1">
          <mxGeometry x="1437" y="370" width="120" height="40" as="geometry" />
        </mxCell>
        <mxCell id="CSQuASh9Ux3v3_yDKKrf-327" value="" style="align=left;strokeColor=#000000;html=1;" vertex="1" parent="1">
          <mxGeometry x="1437" y="410" width="120" height="40" as="geometry" />
        </mxCell>
        <mxCell id="CSQuASh9Ux3v3_yDKKrf-330" value="" style="align=left;strokeColor=#000000;html=1;" vertex="1" parent="1">
          <mxGeometry x="1557" y="330" width="120" height="40" as="geometry" />
        </mxCell>
        <mxCell id="CSQuASh9Ux3v3_yDKKrf-331" value="" style="align=left;strokeColor=#000000;html=1;fillColor=#6666FF;" vertex="1" parent="1">
          <mxGeometry x="1557" y="370" width="120" height="40" as="geometry" />
        </mxCell>
        <mxCell id="CSQuASh9Ux3v3_yDKKrf-332" value="" style="align=left;strokeColor=#000000;html=1;" vertex="1" parent="1">
          <mxGeometry x="1557" y="410" width="120" height="40" as="geometry" />
        </mxCell>
        <mxCell id="CSQuASh9Ux3v3_yDKKrf-335" value="" style="align=left;strokeColor=#000000;html=1;" vertex="1" parent="1">
          <mxGeometry x="237" y="450" width="120" height="40" as="geometry" />
        </mxCell>
        <mxCell id="CSQuASh9Ux3v3_yDKKrf-336" value="" style="align=left;strokeColor=#000000;html=1;" vertex="1" parent="1">
          <mxGeometry x="237" y="490" width="120" height="40" as="geometry" />
        </mxCell>
        <mxCell id="CSQuASh9Ux3v3_yDKKrf-337" value="" style="align=left;strokeColor=#000000;html=1;" vertex="1" parent="1">
          <mxGeometry x="237" y="530" width="120" height="40" as="geometry" />
        </mxCell>
        <mxCell id="CSQuASh9Ux3v3_yDKKrf-338" value="" style="align=left;strokeColor=#000000;html=1;" vertex="1" parent="1">
          <mxGeometry x="357" y="450" width="120" height="40" as="geometry" />
        </mxCell>
        <mxCell id="CSQuASh9Ux3v3_yDKKrf-339" value="" style="align=left;strokeColor=#000000;html=1;" vertex="1" parent="1">
          <mxGeometry x="357" y="490" width="120" height="40" as="geometry" />
        </mxCell>
        <mxCell id="CSQuASh9Ux3v3_yDKKrf-340" value="" style="align=left;strokeColor=#000000;html=1;" vertex="1" parent="1">
          <mxGeometry x="357" y="530" width="120" height="40" as="geometry" />
        </mxCell>
        <mxCell id="CSQuASh9Ux3v3_yDKKrf-341" value="" style="align=left;strokeColor=#000000;html=1;" vertex="1" parent="1">
          <mxGeometry x="477" y="450" width="120" height="40" as="geometry" />
        </mxCell>
        <mxCell id="CSQuASh9Ux3v3_yDKKrf-342" value="" style="align=left;strokeColor=#000000;html=1;" vertex="1" parent="1">
          <mxGeometry x="477" y="490" width="120" height="40" as="geometry" />
        </mxCell>
        <mxCell id="CSQuASh9Ux3v3_yDKKrf-343" value="" style="align=left;strokeColor=#000000;html=1;" vertex="1" parent="1">
          <mxGeometry x="477" y="530" width="120" height="40" as="geometry" />
        </mxCell>
        <mxCell id="CSQuASh9Ux3v3_yDKKrf-344" value="" style="align=left;strokeColor=#000000;html=1;" vertex="1" parent="1">
          <mxGeometry x="597" y="450" width="120" height="40" as="geometry" />
        </mxCell>
        <mxCell id="CSQuASh9Ux3v3_yDKKrf-345" value="" style="align=left;strokeColor=#000000;html=1;" vertex="1" parent="1">
          <mxGeometry x="597" y="490" width="120" height="40" as="geometry" />
        </mxCell>
        <mxCell id="CSQuASh9Ux3v3_yDKKrf-346" value="" style="align=left;strokeColor=#000000;html=1;" vertex="1" parent="1">
          <mxGeometry x="597" y="530" width="120" height="40" as="geometry" />
        </mxCell>
        <mxCell id="CSQuASh9Ux3v3_yDKKrf-347" value="" style="align=left;strokeColor=#000000;html=1;" vertex="1" parent="1">
          <mxGeometry x="717" y="450" width="120" height="40" as="geometry" />
        </mxCell>
        <mxCell id="CSQuASh9Ux3v3_yDKKrf-348" value="" style="align=left;strokeColor=#000000;html=1;" vertex="1" parent="1">
          <mxGeometry x="717" y="490" width="120" height="40" as="geometry" />
        </mxCell>
        <mxCell id="CSQuASh9Ux3v3_yDKKrf-349" value="" style="align=left;strokeColor=#000000;html=1;" vertex="1" parent="1">
          <mxGeometry x="717" y="530" width="120" height="40" as="geometry" />
        </mxCell>
        <mxCell id="CSQuASh9Ux3v3_yDKKrf-350" value="" style="align=left;strokeColor=#000000;html=1;" vertex="1" parent="1">
          <mxGeometry x="837" y="450" width="120" height="40" as="geometry" />
        </mxCell>
        <mxCell id="CSQuASh9Ux3v3_yDKKrf-351" value="" style="align=left;strokeColor=#000000;html=1;" vertex="1" parent="1">
          <mxGeometry x="837" y="490" width="120" height="40" as="geometry" />
        </mxCell>
        <mxCell id="CSQuASh9Ux3v3_yDKKrf-352" value="" style="align=left;strokeColor=#000000;html=1;" vertex="1" parent="1">
          <mxGeometry x="837" y="530" width="120" height="40" as="geometry" />
        </mxCell>
        <mxCell id="CSQuASh9Ux3v3_yDKKrf-353" value="" style="align=left;strokeColor=#000000;html=1;" vertex="1" parent="1">
          <mxGeometry x="957" y="450" width="120" height="40" as="geometry" />
        </mxCell>
        <mxCell id="CSQuASh9Ux3v3_yDKKrf-354" value="" style="align=left;strokeColor=#030303;html=1;" vertex="1" parent="1">
          <mxGeometry x="957" y="490" width="120" height="40" as="geometry" />
        </mxCell>
        <mxCell id="CSQuASh9Ux3v3_yDKKrf-355" value="" style="align=left;strokeColor=#000000;html=1;" vertex="1" parent="1">
          <mxGeometry x="957" y="530" width="120" height="40" as="geometry" />
        </mxCell>
        <mxCell id="CSQuASh9Ux3v3_yDKKrf-356" value="" style="align=left;strokeColor=#000000;html=1;" vertex="1" parent="1">
          <mxGeometry x="1077" y="450" width="120" height="40" as="geometry" />
        </mxCell>
        <mxCell id="CSQuASh9Ux3v3_yDKKrf-357" value="" style="align=left;strokeColor=#000000;html=1;" vertex="1" parent="1">
          <mxGeometry x="1077" y="490" width="120" height="40" as="geometry" />
        </mxCell>
        <mxCell id="CSQuASh9Ux3v3_yDKKrf-358" value="" style="align=left;strokeColor=#050505;html=1;" vertex="1" parent="1">
          <mxGeometry x="1077" y="530" width="120" height="40" as="geometry" />
        </mxCell>
        <mxCell id="CSQuASh9Ux3v3_yDKKrf-359" value="" style="align=left;strokeColor=#000000;html=1;" vertex="1" parent="1">
          <mxGeometry x="1197" y="450" width="120" height="40" as="geometry" />
        </mxCell>
        <mxCell id="CSQuASh9Ux3v3_yDKKrf-360" value="" style="align=left;strokeColor=#030303;html=1;" vertex="1" parent="1">
          <mxGeometry x="1197" y="490" width="120" height="40" as="geometry" />
        </mxCell>
        <mxCell id="CSQuASh9Ux3v3_yDKKrf-361" value="" style="align=left;strokeColor=#030303;html=1;" vertex="1" parent="1">
          <mxGeometry x="1197" y="530" width="120" height="40" as="geometry" />
        </mxCell>
        <mxCell id="CSQuASh9Ux3v3_yDKKrf-362" value="" style="align=left;strokeColor=#000000;html=1;" vertex="1" parent="1">
          <mxGeometry x="1317" y="450" width="120" height="40" as="geometry" />
        </mxCell>
        <mxCell id="CSQuASh9Ux3v3_yDKKrf-363" value="" style="align=left;strokeColor=#080808;html=1;" vertex="1" parent="1">
          <mxGeometry x="1317" y="490" width="120" height="40" as="geometry" />
        </mxCell>
        <mxCell id="CSQuASh9Ux3v3_yDKKrf-364" value="" style="align=left;strokeColor=#000000;html=1;" vertex="1" parent="1">
          <mxGeometry x="1317" y="530" width="120" height="40" as="geometry" />
        </mxCell>
        <mxCell id="CSQuASh9Ux3v3_yDKKrf-365" value="&lt;span style=&quot;font-size: 14px;&quot;&gt;Frontend Development&lt;/span&gt;" style="align=center;strokeColor=#030303;html=1;" vertex="1" parent="1">
          <mxGeometry x="77" y="450" width="160" height="40" as="geometry" />
        </mxCell>
        <mxCell id="CSQuASh9Ux3v3_yDKKrf-366" value="&lt;div style=&quot;&quot;&gt;&lt;font face=&quot;Times New Roman, serif&quot;&gt;&lt;span style=&quot;font-size: 14px;&quot;&gt;Beta Testing&lt;/span&gt;&lt;/font&gt;&lt;br&gt;&lt;/div&gt;" style="align=center;strokeColor=#000000;html=1;" vertex="1" parent="1">
          <mxGeometry x="77" y="490" width="160" height="40" as="geometry" />
        </mxCell>
        <mxCell id="CSQuASh9Ux3v3_yDKKrf-367" value="&lt;font face=&quot;Times New Roman&quot;&gt;&lt;span style=&quot;font-size: 14px;&quot;&gt;Marketing and Promotion&lt;/span&gt;&lt;/font&gt;" style="align=center;strokeColor=#000000;html=1;" vertex="1" parent="1">
          <mxGeometry x="77" y="530" width="160" height="40" as="geometry" />
        </mxCell>
        <mxCell id="CSQuASh9Ux3v3_yDKKrf-368" value="" style="align=left;strokeColor=#000000;html=1;" vertex="1" parent="1">
          <mxGeometry x="1437" y="450" width="120" height="40" as="geometry" />
        </mxCell>
        <mxCell id="CSQuASh9Ux3v3_yDKKrf-369" value="" style="align=left;strokeColor=#000000;html=1;" vertex="1" parent="1">
          <mxGeometry x="1437" y="490" width="120" height="40" as="geometry" />
        </mxCell>
        <mxCell id="CSQuASh9Ux3v3_yDKKrf-370" value="" style="align=left;strokeColor=#000000;html=1;" vertex="1" parent="1">
          <mxGeometry x="1437" y="530" width="120" height="40" as="geometry" />
        </mxCell>
        <mxCell id="CSQuASh9Ux3v3_yDKKrf-371" value="" style="align=left;strokeColor=#000000;html=1;" vertex="1" parent="1">
          <mxGeometry x="1557" y="450" width="120" height="40" as="geometry" />
        </mxCell>
        <mxCell id="CSQuASh9Ux3v3_yDKKrf-372" value="" style="align=left;strokeColor=#000000;html=1;" vertex="1" parent="1">
          <mxGeometry x="1557" y="490" width="120" height="40" as="geometry" />
        </mxCell>
        <mxCell id="CSQuASh9Ux3v3_yDKKrf-373" value="" style="align=left;strokeColor=#000000;html=1;" vertex="1" parent="1">
          <mxGeometry x="1557" y="530" width="120" height="40" as="geometry" />
        </mxCell>
        <mxCell id="CSQuASh9Ux3v3_yDKKrf-374" value="&lt;font style=&quot;font-size: 16px;&quot; face=&quot;Times New Roman&quot;&gt;&lt;b&gt;15&lt;/b&gt;&lt;/font&gt;" style="strokeWidth=1;fontStyle=0;html=1;fillColor=#FFFFFF;" vertex="1" parent="1">
          <mxGeometry x="477" y="570" width="120" height="50" as="geometry" />
        </mxCell>
        <mxCell id="CSQuASh9Ux3v3_yDKKrf-375" value="&lt;font style=&quot;font-size: 16px;&quot; face=&quot;Times New Roman&quot;&gt;&lt;b&gt;16&lt;/b&gt;&lt;/font&gt;" style="strokeWidth=1;fontStyle=0;html=1;fillColor=#FFFFFF;" vertex="1" parent="1">
          <mxGeometry x="597" y="570" width="120" height="50" as="geometry" />
        </mxCell>
        <mxCell id="CSQuASh9Ux3v3_yDKKrf-376" value="&lt;font style=&quot;font-size: 16px;&quot; face=&quot;Times New Roman&quot;&gt;&lt;b&gt;17&lt;/b&gt;&lt;/font&gt;" style="strokeWidth=1;fontStyle=0;html=1;fillColor=#FFFFFF;" vertex="1" parent="1">
          <mxGeometry x="717" y="570" width="120" height="50" as="geometry" />
        </mxCell>
        <mxCell id="CSQuASh9Ux3v3_yDKKrf-377" value="&lt;font style=&quot;font-size: 16px;&quot; face=&quot;Times New Roman&quot;&gt;&lt;b&gt;18&lt;/b&gt;&lt;/font&gt;" style="strokeWidth=1;fontStyle=0;html=1;fillColor=#FFFFFF;" vertex="1" parent="1">
          <mxGeometry x="837" y="570" width="120" height="50" as="geometry" />
        </mxCell>
        <mxCell id="CSQuASh9Ux3v3_yDKKrf-378" value="&lt;b&gt;19&lt;/b&gt;" style="strokeWidth=1;fontStyle=0;html=1;fillColor=#FFFFFF;" vertex="1" parent="1">
          <mxGeometry x="957" y="570" width="120" height="50" as="geometry" />
        </mxCell>
        <mxCell id="CSQuASh9Ux3v3_yDKKrf-379" value="&lt;b&gt;&lt;font style=&quot;font-size: 16px;&quot; face=&quot;Times New Roman&quot;&gt;20&lt;/font&gt;&lt;/b&gt;" style="strokeWidth=1;fontStyle=0;html=1;fillColor=#FFFFFF;" vertex="1" parent="1">
          <mxGeometry x="1077" y="570" width="120" height="50" as="geometry" />
        </mxCell>
        <mxCell id="CSQuASh9Ux3v3_yDKKrf-380" value="&lt;font size=&quot;1&quot; face=&quot;Times New Roman&quot;&gt;&lt;b style=&quot;font-size: 16px;&quot;&gt;21&lt;/b&gt;&lt;/font&gt;" style="strokeWidth=1;fontStyle=0;html=1;fillColor=#FFFFFF;" vertex="1" parent="1">
          <mxGeometry x="1197" y="570" width="120" height="50" as="geometry" />
        </mxCell>
        <mxCell id="CSQuASh9Ux3v3_yDKKrf-381" value="&lt;font size=&quot;1&quot; face=&quot;Times New Roman&quot;&gt;&lt;b style=&quot;font-size: 16px;&quot;&gt;22&lt;/b&gt;&lt;/font&gt;" style="strokeWidth=1;fontStyle=0;html=1;fillColor=#FFFFFF;" vertex="1" parent="1">
          <mxGeometry x="1317" y="570" width="120" height="50" as="geometry" />
        </mxCell>
        <mxCell id="CSQuASh9Ux3v3_yDKKrf-382" value="&lt;font style=&quot;font-size: 16px;&quot; face=&quot;Times New Roman&quot;&gt;&lt;b&gt;14&lt;/b&gt;&lt;/font&gt;" style="strokeWidth=1;fontStyle=0;html=1;fillColor=#FFFFFF;perimeterSpacing=0;strokeColor=default;" vertex="1" parent="1">
          <mxGeometry x="357" y="570" width="120" height="50" as="geometry" />
        </mxCell>
        <mxCell id="CSQuASh9Ux3v3_yDKKrf-383" value="" style="align=left;strokeColor=#000000;html=1;" vertex="1" parent="1">
          <mxGeometry x="237" y="620" width="120" height="40" as="geometry" />
        </mxCell>
        <mxCell id="CSQuASh9Ux3v3_yDKKrf-384" value="&lt;font style=&quot;font-size: 16px;&quot; face=&quot;Times New Roman&quot;&gt;&lt;b&gt;13&lt;/b&gt;&lt;/font&gt;" style="strokeWidth=1;fontStyle=0;html=1;fillColor=#FFFFFF;" vertex="1" parent="1">
          <mxGeometry x="237" y="570" width="120" height="50" as="geometry" />
        </mxCell>
        <mxCell id="CSQuASh9Ux3v3_yDKKrf-385" value="&lt;b&gt;&lt;font style=&quot;font-size: 14px;&quot; color=&quot;#ffffff&quot; face=&quot;Times New Roman&quot;&gt;2.1&lt;/font&gt;&lt;/b&gt;" style="align=center;strokeColor=#000000;html=1;fillColor=#6666FF;" vertex="1" parent="1">
          <mxGeometry x="237" y="660" width="120" height="40" as="geometry" />
        </mxCell>
        <mxCell id="CSQuASh9Ux3v3_yDKKrf-386" value="" style="align=left;strokeColor=#000000;html=1;" vertex="1" parent="1">
          <mxGeometry x="237" y="700" width="120" height="40" as="geometry" />
        </mxCell>
        <mxCell id="CSQuASh9Ux3v3_yDKKrf-387" value="" style="align=left;strokeColor=#000000;html=1;" vertex="1" parent="1">
          <mxGeometry x="357" y="620" width="120" height="40" as="geometry" />
        </mxCell>
        <mxCell id="CSQuASh9Ux3v3_yDKKrf-388" value="" style="align=left;strokeColor=#000000;html=1;fillColor=#6666FF;" vertex="1" parent="1">
          <mxGeometry x="357" y="660" width="120" height="40" as="geometry" />
        </mxCell>
        <mxCell id="CSQuASh9Ux3v3_yDKKrf-389" value="&lt;font face=&quot;Times New Roman&quot; color=&quot;#ffffff&quot;&gt;&lt;span style=&quot;font-size: 14px;&quot;&gt;&lt;b&gt;3.1&lt;/b&gt;&lt;/span&gt;&lt;/font&gt;" style="align=center;strokeColor=#000000;html=1;fillColor=#6666FF;" vertex="1" parent="1">
          <mxGeometry x="357" y="700" width="120" height="40" as="geometry" />
        </mxCell>
        <mxCell id="CSQuASh9Ux3v3_yDKKrf-390" value="" style="align=left;strokeColor=#000000;html=1;" vertex="1" parent="1">
          <mxGeometry x="477" y="620" width="120" height="40" as="geometry" />
        </mxCell>
        <mxCell id="CSQuASh9Ux3v3_yDKKrf-391" value="&lt;b&gt;&lt;font style=&quot;font-size: 14px;&quot; color=&quot;#ffffff&quot; face=&quot;Times New Roman&quot;&gt;2.2&lt;/font&gt;&lt;/b&gt;" style="align=center;strokeColor=#000000;html=1;fillColor=#6666FF;" vertex="1" parent="1">
          <mxGeometry x="477" y="660" width="120" height="40" as="geometry" />
        </mxCell>
        <mxCell id="CSQuASh9Ux3v3_yDKKrf-392" value="" style="align=left;strokeColor=#000000;html=1;" vertex="1" parent="1">
          <mxGeometry x="477" y="700" width="120" height="40" as="geometry" />
        </mxCell>
        <mxCell id="CSQuASh9Ux3v3_yDKKrf-393" value="" style="align=left;strokeColor=#000000;html=1;" vertex="1" parent="1">
          <mxGeometry x="597" y="620" width="120" height="40" as="geometry" />
        </mxCell>
        <mxCell id="CSQuASh9Ux3v3_yDKKrf-394" value="" style="align=left;strokeColor=#000000;html=1;" vertex="1" parent="1">
          <mxGeometry x="597" y="660" width="120" height="40" as="geometry" />
        </mxCell>
        <mxCell id="CSQuASh9Ux3v3_yDKKrf-395" value="" style="align=left;strokeColor=#000000;html=1;" vertex="1" parent="1">
          <mxGeometry x="597" y="700" width="120" height="40" as="geometry" />
        </mxCell>
        <mxCell id="CSQuASh9Ux3v3_yDKKrf-396" value="" style="align=left;strokeColor=#000000;html=1;" vertex="1" parent="1">
          <mxGeometry x="717" y="620" width="120" height="40" as="geometry" />
        </mxCell>
        <mxCell id="CSQuASh9Ux3v3_yDKKrf-397" value="" style="align=left;strokeColor=#000000;html=1;" vertex="1" parent="1">
          <mxGeometry x="717" y="660" width="120" height="40" as="geometry" />
        </mxCell>
        <mxCell id="CSQuASh9Ux3v3_yDKKrf-398" value="" style="align=left;strokeColor=#000000;html=1;" vertex="1" parent="1">
          <mxGeometry x="717" y="700" width="120" height="40" as="geometry" />
        </mxCell>
        <mxCell id="CSQuASh9Ux3v3_yDKKrf-399" value="" style="align=left;strokeColor=#000000;html=1;" vertex="1" parent="1">
          <mxGeometry x="837" y="620" width="120" height="40" as="geometry" />
        </mxCell>
        <mxCell id="CSQuASh9Ux3v3_yDKKrf-400" value="" style="align=left;strokeColor=#000000;html=1;" vertex="1" parent="1">
          <mxGeometry x="837" y="660" width="120" height="40" as="geometry" />
        </mxCell>
        <mxCell id="CSQuASh9Ux3v3_yDKKrf-401" value="" style="align=left;strokeColor=#000000;html=1;" vertex="1" parent="1">
          <mxGeometry x="837" y="700" width="120" height="40" as="geometry" />
        </mxCell>
        <mxCell id="CSQuASh9Ux3v3_yDKKrf-402" value="" style="align=left;strokeColor=#000000;html=1;" vertex="1" parent="1">
          <mxGeometry x="957" y="620" width="120" height="40" as="geometry" />
        </mxCell>
        <mxCell id="CSQuASh9Ux3v3_yDKKrf-403" value="" style="align=left;strokeColor=#030303;html=1;" vertex="1" parent="1">
          <mxGeometry x="957" y="660" width="120" height="40" as="geometry" />
        </mxCell>
        <mxCell id="CSQuASh9Ux3v3_yDKKrf-404" value="" style="align=left;strokeColor=#000000;html=1;" vertex="1" parent="1">
          <mxGeometry x="957" y="700" width="120" height="40" as="geometry" />
        </mxCell>
        <mxCell id="CSQuASh9Ux3v3_yDKKrf-405" value="" style="align=left;strokeColor=#000000;html=1;" vertex="1" parent="1">
          <mxGeometry x="1077" y="620" width="120" height="40" as="geometry" />
        </mxCell>
        <mxCell id="CSQuASh9Ux3v3_yDKKrf-406" value="" style="align=left;strokeColor=#000000;html=1;" vertex="1" parent="1">
          <mxGeometry x="1077" y="660" width="120" height="40" as="geometry" />
        </mxCell>
        <mxCell id="CSQuASh9Ux3v3_yDKKrf-407" value="" style="align=left;strokeColor=#050505;html=1;" vertex="1" parent="1">
          <mxGeometry x="1077" y="700" width="120" height="40" as="geometry" />
        </mxCell>
        <mxCell id="CSQuASh9Ux3v3_yDKKrf-408" value="" style="align=left;strokeColor=#000000;html=1;" vertex="1" parent="1">
          <mxGeometry x="1197" y="620" width="120" height="40" as="geometry" />
        </mxCell>
        <mxCell id="CSQuASh9Ux3v3_yDKKrf-409" value="" style="align=left;strokeColor=#030303;html=1;" vertex="1" parent="1">
          <mxGeometry x="1197" y="660" width="120" height="40" as="geometry" />
        </mxCell>
        <mxCell id="CSQuASh9Ux3v3_yDKKrf-410" value="" style="align=left;strokeColor=#030303;html=1;" vertex="1" parent="1">
          <mxGeometry x="1197" y="700" width="120" height="40" as="geometry" />
        </mxCell>
        <mxCell id="CSQuASh9Ux3v3_yDKKrf-411" value="" style="align=left;strokeColor=#000000;html=1;" vertex="1" parent="1">
          <mxGeometry x="1317" y="620" width="120" height="40" as="geometry" />
        </mxCell>
        <mxCell id="CSQuASh9Ux3v3_yDKKrf-412" value="" style="align=left;strokeColor=#080808;html=1;" vertex="1" parent="1">
          <mxGeometry x="1317" y="660" width="120" height="40" as="geometry" />
        </mxCell>
        <mxCell id="CSQuASh9Ux3v3_yDKKrf-413" value="" style="align=left;strokeColor=#000000;html=1;" vertex="1" parent="1">
          <mxGeometry x="1317" y="700" width="120" height="40" as="geometry" />
        </mxCell>
        <mxCell id="CSQuASh9Ux3v3_yDKKrf-414" value="&lt;span style=&quot;font-size: 14px;&quot; lang=&quot;EL&quot;&gt;Κατασκευή Βάσης&lt;br&gt;&amp;nbsp;Δεδομένων&lt;/span&gt;" style="align=center;strokeColor=#030303;html=1;" vertex="1" parent="1">
          <mxGeometry x="77" y="620" width="160" height="40" as="geometry" />
        </mxCell>
        <mxCell id="CSQuASh9Ux3v3_yDKKrf-415" value="&lt;font face=&quot;Times New Roman&quot;&gt;&lt;span style=&quot;font-size: 16px;&quot;&gt;&lt;b&gt;-&lt;/b&gt;&lt;/span&gt;&lt;/font&gt;" style="strokeWidth=1;fontStyle=0;html=1;fillColor=#FFFFFF;" vertex="1" parent="1">
          <mxGeometry x="77" y="570" width="160" height="50" as="geometry" />
        </mxCell>
        <mxCell id="CSQuASh9Ux3v3_yDKKrf-416" value="&lt;div style=&quot;font-size: 14px;&quot;&gt;&lt;span style=&quot;background-color: initial; font-family: &amp;quot;Times New Roman&amp;quot;, serif;&quot;&gt;Backend&lt;/span&gt;&lt;span style=&quot;background-color: initial; font-family: &amp;quot;Times New Roman&amp;quot;, serif;&quot;&gt; &lt;/span&gt;&lt;span style=&quot;background-color: initial; font-family: &amp;quot;Times New Roman&amp;quot;, serif;&quot;&gt;Development&lt;/span&gt;&lt;/div&gt;" style="align=center;strokeColor=#000000;html=1;" vertex="1" parent="1">
          <mxGeometry x="77" y="660" width="160" height="40" as="geometry" />
        </mxCell>
        <mxCell id="CSQuASh9Ux3v3_yDKKrf-417" value="&lt;font face=&quot;Times New Roman&quot; style=&quot;font-size: 14px;&quot;&gt;Alpha Testing&lt;/font&gt;" style="align=center;strokeColor=#000000;html=1;" vertex="1" parent="1">
          <mxGeometry x="77" y="700" width="160" height="40" as="geometry" />
        </mxCell>
        <mxCell id="CSQuASh9Ux3v3_yDKKrf-418" value="&lt;b&gt;&lt;font style=&quot;font-size: 16px;&quot; face=&quot;Times New Roman&quot;&gt;23&lt;/font&gt;&lt;/b&gt;" style="strokeWidth=1;fontStyle=0;html=1;fillColor=#FFFFFF;" vertex="1" parent="1">
          <mxGeometry x="1437" y="570" width="120" height="50" as="geometry" />
        </mxCell>
        <mxCell id="CSQuASh9Ux3v3_yDKKrf-419" value="&lt;b&gt;&lt;font style=&quot;font-size: 16px;&quot; face=&quot;Times New Roman&quot;&gt;24&lt;/font&gt;&lt;/b&gt;" style="strokeWidth=1;fontStyle=0;html=1;fillColor=#FFFFFF;" vertex="1" parent="1">
          <mxGeometry x="1557" y="570" width="120" height="50" as="geometry" />
        </mxCell>
        <mxCell id="CSQuASh9Ux3v3_yDKKrf-420" value="" style="align=left;strokeColor=#000000;html=1;" vertex="1" parent="1">
          <mxGeometry x="1437" y="620" width="120" height="40" as="geometry" />
        </mxCell>
        <mxCell id="CSQuASh9Ux3v3_yDKKrf-421" value="" style="align=left;strokeColor=#000000;html=1;" vertex="1" parent="1">
          <mxGeometry x="1437" y="660" width="120" height="40" as="geometry" />
        </mxCell>
        <mxCell id="CSQuASh9Ux3v3_yDKKrf-422" value="" style="align=left;strokeColor=#000000;html=1;" vertex="1" parent="1">
          <mxGeometry x="1437" y="700" width="120" height="40" as="geometry" />
        </mxCell>
        <mxCell id="CSQuASh9Ux3v3_yDKKrf-423" value="" style="align=left;strokeColor=#000000;html=1;" vertex="1" parent="1">
          <mxGeometry x="1557" y="620" width="120" height="40" as="geometry" />
        </mxCell>
        <mxCell id="CSQuASh9Ux3v3_yDKKrf-424" value="" style="align=left;strokeColor=#000000;html=1;" vertex="1" parent="1">
          <mxGeometry x="1557" y="660" width="120" height="40" as="geometry" />
        </mxCell>
        <mxCell id="CSQuASh9Ux3v3_yDKKrf-425" value="" style="align=left;strokeColor=#000000;html=1;" vertex="1" parent="1">
          <mxGeometry x="1557" y="700" width="120" height="40" as="geometry" />
        </mxCell>
        <mxCell id="CSQuASh9Ux3v3_yDKKrf-426" value="" style="align=left;strokeColor=#000000;html=1;" vertex="1" parent="1">
          <mxGeometry x="237" y="740" width="120" height="40" as="geometry" />
        </mxCell>
        <mxCell id="CSQuASh9Ux3v3_yDKKrf-427" value="" style="align=left;strokeColor=#000000;html=1;" vertex="1" parent="1">
          <mxGeometry x="237" y="780" width="120" height="40" as="geometry" />
        </mxCell>
        <mxCell id="CSQuASh9Ux3v3_yDKKrf-428" value="" style="align=left;strokeColor=#000000;html=1;" vertex="1" parent="1">
          <mxGeometry x="237" y="820" width="120" height="40" as="geometry" />
        </mxCell>
        <mxCell id="CSQuASh9Ux3v3_yDKKrf-429" value="" style="align=left;strokeColor=#000000;html=1;" vertex="1" parent="1">
          <mxGeometry x="357" y="740" width="120" height="40" as="geometry" />
        </mxCell>
        <mxCell id="CSQuASh9Ux3v3_yDKKrf-430" value="" style="align=left;strokeColor=#000000;html=1;" vertex="1" parent="1">
          <mxGeometry x="357" y="780" width="120" height="40" as="geometry" />
        </mxCell>
        <mxCell id="CSQuASh9Ux3v3_yDKKrf-431" value="" style="align=left;strokeColor=#000000;html=1;" vertex="1" parent="1">
          <mxGeometry x="357" y="820" width="120" height="40" as="geometry" />
        </mxCell>
        <mxCell id="CSQuASh9Ux3v3_yDKKrf-432" value="" style="align=left;strokeColor=#000000;html=1;" vertex="1" parent="1">
          <mxGeometry x="477" y="740" width="120" height="40" as="geometry" />
        </mxCell>
        <mxCell id="CSQuASh9Ux3v3_yDKKrf-433" value="" style="align=left;strokeColor=#000000;html=1;" vertex="1" parent="1">
          <mxGeometry x="477" y="780" width="120" height="40" as="geometry" />
        </mxCell>
        <mxCell id="CSQuASh9Ux3v3_yDKKrf-434" value="" style="align=left;strokeColor=#000000;html=1;" vertex="1" parent="1">
          <mxGeometry x="477" y="820" width="120" height="40" as="geometry" />
        </mxCell>
        <mxCell id="CSQuASh9Ux3v3_yDKKrf-435" value="" style="align=left;strokeColor=#000000;html=1;fillColor=#6666FF;" vertex="1" parent="1">
          <mxGeometry x="597" y="740" width="120" height="40" as="geometry" />
        </mxCell>
        <mxCell id="CSQuASh9Ux3v3_yDKKrf-436" value="" style="align=left;strokeColor=#000000;html=1;" vertex="1" parent="1">
          <mxGeometry x="597" y="780" width="120" height="40" as="geometry" />
        </mxCell>
        <mxCell id="CSQuASh9Ux3v3_yDKKrf-437" value="" style="align=left;strokeColor=#000000;html=1;" vertex="1" parent="1">
          <mxGeometry x="597" y="820" width="120" height="40" as="geometry" />
        </mxCell>
        <mxCell id="CSQuASh9Ux3v3_yDKKrf-438" value="" style="align=left;strokeColor=#000000;html=1;fillColor=#6666FF;" vertex="1" parent="1">
          <mxGeometry x="717" y="740" width="120" height="40" as="geometry" />
        </mxCell>
        <mxCell id="CSQuASh9Ux3v3_yDKKrf-439" value="" style="align=left;strokeColor=#000000;html=1;" vertex="1" parent="1">
          <mxGeometry x="717" y="780" width="120" height="40" as="geometry" />
        </mxCell>
        <mxCell id="CSQuASh9Ux3v3_yDKKrf-440" value="" style="align=left;strokeColor=#000000;html=1;" vertex="1" parent="1">
          <mxGeometry x="717" y="820" width="120" height="40" as="geometry" />
        </mxCell>
        <mxCell id="CSQuASh9Ux3v3_yDKKrf-441" value="" style="align=left;strokeColor=#000000;html=1;fillColor=#6666FF;" vertex="1" parent="1">
          <mxGeometry x="837" y="740" width="120" height="40" as="geometry" />
        </mxCell>
        <mxCell id="CSQuASh9Ux3v3_yDKKrf-442" value="" style="align=left;strokeColor=#000000;html=1;" vertex="1" parent="1">
          <mxGeometry x="837" y="780" width="120" height="40" as="geometry" />
        </mxCell>
        <mxCell id="CSQuASh9Ux3v3_yDKKrf-443" value="" style="align=left;strokeColor=#000000;html=1;" vertex="1" parent="1">
          <mxGeometry x="837" y="820" width="120" height="40" as="geometry" />
        </mxCell>
        <mxCell id="CSQuASh9Ux3v3_yDKKrf-444" value="" style="align=left;strokeColor=#000000;html=1;fillColor=#6666FF;" vertex="1" parent="1">
          <mxGeometry x="957" y="740" width="120" height="40" as="geometry" />
        </mxCell>
        <mxCell id="CSQuASh9Ux3v3_yDKKrf-445" value="" style="align=left;strokeColor=#030303;html=1;" vertex="1" parent="1">
          <mxGeometry x="957" y="780" width="120" height="40" as="geometry" />
        </mxCell>
        <mxCell id="CSQuASh9Ux3v3_yDKKrf-446" value="" style="align=left;strokeColor=#000000;html=1;" vertex="1" parent="1">
          <mxGeometry x="957" y="820" width="120" height="40" as="geometry" />
        </mxCell>
        <mxCell id="CSQuASh9Ux3v3_yDKKrf-447" value="&lt;font face=&quot;Times New Roman&quot; color=&quot;#ffffff&quot;&gt;&lt;span style=&quot;font-size: 14px;&quot;&gt;&lt;b&gt;4.1&lt;/b&gt;&lt;/span&gt;&lt;/font&gt;" style="align=center;strokeColor=#000000;html=1;fillColor=#6666FF;" vertex="1" parent="1">
          <mxGeometry x="1077" y="740" width="120" height="40" as="geometry" />
        </mxCell>
        <mxCell id="CSQuASh9Ux3v3_yDKKrf-448" value="" style="align=left;strokeColor=#000000;html=1;" vertex="1" parent="1">
          <mxGeometry x="1077" y="780" width="120" height="40" as="geometry" />
        </mxCell>
        <mxCell id="CSQuASh9Ux3v3_yDKKrf-449" value="" style="align=left;strokeColor=#050505;html=1;" vertex="1" parent="1">
          <mxGeometry x="1077" y="820" width="120" height="40" as="geometry" />
        </mxCell>
        <mxCell id="CSQuASh9Ux3v3_yDKKrf-450" value="" style="align=left;strokeColor=#000000;html=1;" vertex="1" parent="1">
          <mxGeometry x="1197" y="740" width="120" height="40" as="geometry" />
        </mxCell>
        <mxCell id="CSQuASh9Ux3v3_yDKKrf-451" value="&lt;b style=&quot;color: rgb(255, 255, 255); font-family: &amp;quot;Times New Roman&amp;quot;; font-size: 14px;&quot;&gt;5.1&lt;/b&gt;" style="align=center;strokeColor=#030303;html=1;fillColor=#6666FF;" vertex="1" parent="1">
          <mxGeometry x="1197" y="780" width="120" height="40" as="geometry" />
        </mxCell>
        <mxCell id="CSQuASh9Ux3v3_yDKKrf-452" value="" style="align=left;strokeColor=#030303;html=1;" vertex="1" parent="1">
          <mxGeometry x="1197" y="820" width="120" height="40" as="geometry" />
        </mxCell>
        <mxCell id="CSQuASh9Ux3v3_yDKKrf-453" value="" style="align=left;strokeColor=#000000;html=1;" vertex="1" parent="1">
          <mxGeometry x="1317" y="740" width="120" height="40" as="geometry" />
        </mxCell>
        <mxCell id="CSQuASh9Ux3v3_yDKKrf-454" value="&lt;b style=&quot;color: rgb(255, 255, 255); font-family: &amp;quot;Times New Roman&amp;quot;; font-size: 14px;&quot;&gt;5.2&lt;/b&gt;" style="align=center;strokeColor=#080808;html=1;fillColor=#6666FF;" vertex="1" parent="1">
          <mxGeometry x="1317" y="780" width="120" height="40" as="geometry" />
        </mxCell>
        <mxCell id="CSQuASh9Ux3v3_yDKKrf-455" value="" style="align=left;strokeColor=#000000;html=1;" vertex="1" parent="1">
          <mxGeometry x="1317" y="820" width="120" height="40" as="geometry" />
        </mxCell>
        <mxCell id="CSQuASh9Ux3v3_yDKKrf-456" value="&lt;span style=&quot;font-size: 14px;&quot;&gt;Frontend Development&lt;/span&gt;" style="align=center;strokeColor=#030303;html=1;" vertex="1" parent="1">
          <mxGeometry x="77" y="740" width="160" height="40" as="geometry" />
        </mxCell>
        <mxCell id="CSQuASh9Ux3v3_yDKKrf-457" value="&lt;div style=&quot;&quot;&gt;&lt;font face=&quot;Times New Roman, serif&quot;&gt;&lt;span style=&quot;font-size: 14px;&quot;&gt;Beta Testing&lt;/span&gt;&lt;/font&gt;&lt;br&gt;&lt;/div&gt;" style="align=center;strokeColor=#000000;html=1;" vertex="1" parent="1">
          <mxGeometry x="77" y="780" width="160" height="40" as="geometry" />
        </mxCell>
        <mxCell id="CSQuASh9Ux3v3_yDKKrf-458" value="&lt;font face=&quot;Times New Roman&quot;&gt;&lt;span style=&quot;font-size: 14px;&quot;&gt;Marketing and Promotion&lt;/span&gt;&lt;/font&gt;" style="align=center;strokeColor=#000000;html=1;" vertex="1" parent="1">
          <mxGeometry x="77" y="820" width="160" height="40" as="geometry" />
        </mxCell>
        <mxCell id="CSQuASh9Ux3v3_yDKKrf-459" value="" style="align=left;strokeColor=#000000;html=1;" vertex="1" parent="1">
          <mxGeometry x="1437" y="740" width="120" height="40" as="geometry" />
        </mxCell>
        <mxCell id="CSQuASh9Ux3v3_yDKKrf-460" value="" style="align=left;strokeColor=#000000;html=1;" vertex="1" parent="1">
          <mxGeometry x="1437" y="780" width="120" height="40" as="geometry" />
        </mxCell>
        <mxCell id="CSQuASh9Ux3v3_yDKKrf-461" value="&lt;b style=&quot;color: rgb(255, 255, 255); font-family: &amp;quot;Times New Roman&amp;quot;; font-size: 14px;&quot;&gt;6.1&lt;/b&gt;" style="align=center;strokeColor=#000000;html=1;fillColor=#6666FF;" vertex="1" parent="1">
          <mxGeometry x="1437" y="820" width="120" height="40" as="geometry" />
        </mxCell>
        <mxCell id="CSQuASh9Ux3v3_yDKKrf-462" value="" style="align=left;strokeColor=#000000;html=1;" vertex="1" parent="1">
          <mxGeometry x="1557" y="740" width="120" height="40" as="geometry" />
        </mxCell>
        <mxCell id="CSQuASh9Ux3v3_yDKKrf-463" value="" style="align=left;strokeColor=#000000;html=1;" vertex="1" parent="1">
          <mxGeometry x="1557" y="780" width="120" height="40" as="geometry" />
        </mxCell>
        <mxCell id="CSQuASh9Ux3v3_yDKKrf-464" value="&lt;font face=&quot;Times New Roman&quot; color=&quot;#ffffff&quot;&gt;&lt;span style=&quot;font-size: 14px;&quot;&gt;&lt;b&gt;6.2&lt;/b&gt;&lt;/span&gt;&lt;/font&gt;" style="align=center;strokeColor=#000000;html=1;fillColor=#6666FF;" vertex="1" parent="1">
          <mxGeometry x="1557" y="820" width="120" height="40" as="geometry" />
        </mxCell>
      </root>
    </mxGraphModel>
  </diagram>
</mxfile>
